<svg xmlns="http://www.w3.org/2000/svg" viewBox="0 0 47.67 46.48"><defs><style>.cls-1{fill:#fff;}</style></defs><g id="Calque_2" data-name="Calque 2"><g id="Calque_6" data-name="Calque 6"><path class="cls-1" d="M39.77,46.48H8l-.83-.13a8.31,8.31,0,0,1-5.26-3.07A8.44,8.44,0,0,1,0,37.83Q0,23.24,0,8.63A9.59,9.59,0,0,1,.14,7,8.29,8.29,0,0,1,5,.74,8.23,8.23,0,0,1,8.56,0H39.74c.23,0,.47,0,.7.06A8.26,8.26,0,0,1,45.3,2.54a8.07,8.07,0,0,1,2.33,4.93.56.56,0,0,0,0,.12V38.86l-.06.44A8.24,8.24,0,0,1,46.69,42a8.37,8.37,0,0,1-6.09,4.32ZM19.21,27.79l.09.25c.49,1.44,1,2.88,1.48,4.31.09.28.15.32.44.32h4c.18,0,.24-.09.2-.27a.76.76,0,0,0-.06-.2q-1.75-4.91-3.52-9.83L18.25,12.23c-.09-.25-.12-.28-.38-.28H13c-.24,0-.28,0-.28.28a6.49,6.49,0,0,1-.37,2Q10.44,19.51,8.6,24.8L6,32.2a1.81,1.81,0,0,0-.09.31c0,.14,0,.21.19.22H9.93a.32.32,0,0,0,.32-.24s0-.1.05-.15c.46-1.42.91-2.84,1.37-4.25,0-.1.07-.2.11-.31ZM30.87,26h.28c1,0,2,0,2.93,0,1.43,0,2.86,0,4.29.06a12.86,12.86,0,0,0,2-.09c.28,0,.36-.09.38-.37a18.1,18.1,0,0,0,.1-2.08,7.52,7.52,0,0,0-.55-2.81,6.18,6.18,0,0,0-1.75-2.53,6.4,6.4,0,0,0-3.71-1.41,16.2,16.2,0,0,0-2,0,5.53,5.53,0,0,0-2,.52,7.38,7.38,0,0,0-3.46,3.43,9.53,9.53,0,0,0-1,3.59,9.85,9.85,0,0,0,.47,3.89,6.78,6.78,0,0,0,3.67,4.19,8.49,8.49,0,0,0,3.29.74A14.64,14.64,0,0,0,37,33a10.28,10.28,0,0,0,2.09-.57.5.5,0,0,0,.36-.53c0-1,0-1.92,0-2.88a2.29,2.29,0,0,0,0-.25l-.17.05c-.26.08-.52.18-.78.24a16.07,16.07,0,0,1-2.39.38A6.63,6.63,0,0,1,33,29a3.18,3.18,0,0,1-1.85-1.85A4.22,4.22,0,0,1,30.87,26Z"/><path class="cls-1" d="M18,23.83h-5a1.27,1.27,0,0,1,0-.14c.4-1.29.81-2.58,1.2-3.87.34-1.12.67-2.24,1-3.37.07-.23.11-.47.16-.7l.07-.2a.88.88,0,0,1,.07.13C16.23,18.42,17.13,21.11,18,23.83Z"/><path class="cls-1" d="M30.87,23.1a3.84,3.84,0,0,1,.4-1.36,2.69,2.69,0,0,1,1.91-1.51,2.83,2.83,0,0,1,2.45.47,2.57,2.57,0,0,1,1,2c0,.21,0,.25-.22.31a1.76,1.76,0,0,1-.45.07H30.87Z"/></g></g></svg>