<svg xmlns="http://www.w3.org/2000/svg" viewBox="0 0 47.59 46.35"><defs><style>.cls-1{fill:#fff;}</style></defs><g id="Calque_2" data-name="Calque 2"><g id="Calque_6" data-name="Calque 6"><path class="cls-1" d="M47.59,7.44v31.5l0,0c0,.2-.06.41-.1.6s-.14.62-.23.93-.17.46-.26.69a7.9,7.9,0,0,1-.81,1.48,9.6,9.6,0,0,1-.86,1,9,9,0,0,1-1,.93,7.52,7.52,0,0,1-1.3.79,6.17,6.17,0,0,1-.83.37,7.41,7.41,0,0,1-1.47.39,8,8,0,0,1-1.29.14H8.67a8.52,8.52,0,0,1-1.43-.09,9.34,9.34,0,0,1-1.73-.44A8.83,8.83,0,0,1,3.83,45a8.9,8.9,0,0,1-1.7-1.48A7.8,7.8,0,0,1,1,41.91a8.46,8.46,0,0,1-.87-2.47c0-.22-.05-.43-.08-.65,0,0,0-.13-.09-.11v-31c.1,0,.08-.06.09-.11A5.61,5.61,0,0,1,.15,7c.08-.36.18-.71.27-1.07,0-.16.13-.32.18-.49a7.06,7.06,0,0,1,.94-1.78c.22-.31.47-.6.72-.89a6.28,6.28,0,0,1,1-.9A8.39,8.39,0,0,1,4.6.93,9.31,9.31,0,0,1,6,.35,9,9,0,0,1,7.49.05l.08,0H40S40,0,40,0A8.46,8.46,0,0,1,42.09.5a8.82,8.82,0,0,1,3.49,2.42,7.93,7.93,0,0,1,1.23,1.9,8,8,0,0,1,.52,1.41,6.09,6.09,0,0,1,.21,1.13S47.57,7.41,47.59,7.44ZM23.08,27.81a.45.45,0,0,1,.06.12l.54,1.56.6,1.73c.13.39.28.77.4,1.15s.14.36.45.36h3.94l.27,0a.66.66,0,0,0-.06-.52c-.14-.41-.29-.81-.43-1.21s-.29-.83-.44-1.24L28,28.65c-.19-.55-.38-1.1-.58-1.64L27,25.77l-.39-1.11-.44-1.23-.54-1.56c-.22-.6-.44-1.2-.65-1.81s-.36-1-.55-1.54L24,17.4l-.6-1.71c-.15-.4-.29-.81-.43-1.21l-.36-1c-.15-.44-.31-.87-.46-1.31-.07-.2-.12-.26-.35-.26H16.91c-.27,0-.31,0-.32.29a1.27,1.27,0,0,1,0,.2,4.94,4.94,0,0,1-.1,1c-.13.53-.32,1-.49,1.56s-.27.75-.4,1.13l-.45,1.3-.39,1.11-.57,1.67-.45,1.25c-.15.42-.29.85-.44,1.27l-.4,1.14c-.18.52-.35,1.06-.53,1.58l-.75,2.14c-.26.73-.5,1.46-.75,2.18s-.51,1.44-.76,2.16a3.93,3.93,0,0,0-.19.58c-.06.26,0,.34.27.34h3.65a.35.35,0,0,0,.39-.3l.38-1.19c.15-.44.29-.88.44-1.32.19-.61.39-1.22.58-1.83,0-.09.07-.18.11-.28Zm8.4-3v7.55c0,.33.06.38.38.38h3.59c.43,0,.46,0,.46-.45v-15c0-.35-.11-.36-.35-.35h-3.7c-.37,0-.38,0-.38.38Zm2.23-14.52a2.4,2.4,0,0,0-1.31.36,2.34,2.34,0,0,0-.93,1,2.72,2.72,0,0,0-.2,1.19,2.52,2.52,0,0,0,.46,1.41,2.23,2.23,0,0,0,1.29.87,2.47,2.47,0,0,0,2.42-.56,2.28,2.28,0,0,0,.7-1.32A2.73,2.73,0,0,0,36,11.71a2.36,2.36,0,0,0-.7-1A2.48,2.48,0,0,0,33.71,10.29Z"/><path class="cls-1" d="M19.37,15.54l.15.47.24.91.45,1.5c.14.45.29.9.44,1.35.19.61.37,1.22.56,1.83.14.44.29.88.44,1.32.09.27.16.54.26.84l-.31,0H17.18l-.31,0c.06-.2.12-.37.18-.54.15-.45.29-.89.43-1.34s.26-.9.39-1.34.31-1,.46-1.46.37-1.13.53-1.7.31-1.23.47-1.84Z"/></g></g></svg>