<svg xmlns="http://www.w3.org/2000/svg" viewBox="0 0 45.53 44.46"><defs><style>.cls-1{fill:#fff;}</style></defs><g id="Calque_2" data-name="Calque 2"><g id="Calque_6" data-name="Calque 6"><path class="cls-1" d="M0,36.91V7.55c0-.06,0-.13,0-.19A11.75,11.75,0,0,1,.27,6,8,8,0,0,1,8.11,0H37.47a7.6,7.6,0,0,1,1.27.09,7.94,7.94,0,0,1,6.19,4.78,6.54,6.54,0,0,1,.6,2.77q0,14.74,0,29.49a3.71,3.71,0,0,1-.07.74,8,8,0,0,1-6.39,6.43c-.33.07-.67.11-1,.16H7.55l-.15,0a7.59,7.59,0,0,1-3.46-1.11A8,8,0,0,1,.15,37.92C.09,37.58.05,37.24,0,36.91Zm14.91-25.4H12.54c-.23,0-.28.05-.28.28a5.48,5.48,0,0,1-.33,1.83C11,16.31,10,19,9.09,21.71q-1.61,4.62-3.22,9.23c-.14.38-.08.46.32.46H9.57c.3,0,.37,0,.46-.34.45-1.39.9-2.78,1.34-4.18a.28.28,0,0,1,.31-.22q3.32,0,6.63,0a.25.25,0,0,1,.28.2c.48,1.4,1,2.79,1.45,4.19.09.26.13.29.41.29h3.64c.5,0,.52,0,.35-.5q-3.4-9.53-6.8-19.06a.34.34,0,0,0-.38-.28Zm15.64,6c0-.15,0-.28-.07-.41s-.06-.27-.1-.41c-.12-.42-.18-.47-.62-.47h-2c-.34,0-.67,0-1,0s-.24.07-.23.26c0,.88.1,1.75.1,2.63,0,4,0,8,0,12,0,.26.08.34.34.34h3.45c.27,0,.33-.06.33-.34v-.17q0-5,0-10a.45.45,0,0,1,.19-.4,3.73,3.73,0,0,1,2.44-.84,2.11,2.11,0,0,1,2.1,1.41,4.43,4.43,0,0,1,.3,1.65v8.31c0,.32.07.39.39.39l3.37,0c.31,0,.36,0,.36-.37V22.16a10.29,10.29,0,0,0-.22-2.35,4.5,4.5,0,0,0-3.48-3.6,6.26,6.26,0,0,0-5,.88C31,17.22,30.78,17.39,30.55,17.55Z"/><path class="cls-1" d="M12.59,22.87c.74-2.63,1.66-5.21,2.3-7.9l2.47,7.9Z"/></g></g></svg>