<svg xmlns="http://www.w3.org/2000/svg" viewBox="0 0 35.1 49.54"><defs><style>.cls-1{fill:#fff;}</style></defs><g id="Calque_2" data-name="Calque 2"><g id="Calque_6" data-name="Calque 6"><path class="cls-1" d="M0,9.9V9.75H35.1v.13c-.05.59-.11,1.18-.16,1.78-.15,1.64-.3,3.29-.44,4.94-.13,1.37-.24,2.74-.37,4.11-.14,1.58-.28,3.16-.43,4.75l-.33,3.78c-.13,1.48-.27,2.95-.4,4.42l-.33,3.79c-.12,1.36-.25,2.73-.37,4.09s-.24,2.63-.35,3.94a.15.15,0,0,1-.12.15l-.87.23L18,49.47a1.13,1.13,0,0,1-.81,0c-.13,0-.27-.07-.4-.11L3.32,45.63c-.09,0-.13-.05-.14-.15-.06-.79-.13-1.57-.21-2.36s-.16-1.86-.25-2.8l-.21-2.45c-.09-.93-.17-1.86-.25-2.79S2.11,33.43,2,32.61c-.09-1-.19-2.07-.28-3.1s-.16-1.87-.25-2.8-.19-2.08-.28-3.12L1,20.47c-.1-1-.19-2.07-.28-3.11S.49,15.28.4,14.24C.3,13.05.19,11.87.08,10.68.06,10.42,0,10.16,0,9.9ZM23.73,21.47,23.33,26h-16l.39,4.39H23c0,.33-.06.63-.08.94-.07.7-.13,1.4-.19,2.1s-.15,1.67-.22,2.51a.18.18,0,0,1-.16.19l-4.7,1.27h-.14l-4.72-1.27a.14.14,0,0,1-.12-.14l-.18-2.08-.12-1.31H7.92q0,.18,0,.33c.06.71.13,1.42.19,2.13s.13,1.43.19,2.14.13,1.43.19,2.14c0,.11,0,.16.15.19l8.77,2.43a.37.37,0,0,0,.21,0L23.2,40.4c1.08-.29,2.15-.59,3.23-.9.05,0,.12-.07.12-.11,0-.33.06-.66.09-1,.07-.7.13-1.4.19-2.1s.15-1.65.22-2.47.13-1.41.19-2.12.15-1.67.22-2.5.13-1.39.19-2.09.15-1.63.22-2.44.12-1.42.19-2.13.15-1.67.22-2.51.13-1.42.2-2.14c0-.27,0-.54.07-.82h-22l.4,4.39Z"/><path class="cls-1" d="M26.38,0c0,.32,0,.63,0,1v1H23.28v.38h3.08V6.77H21v-2h3.08V4.37H21V.16S21,.05,21,0Z"/><path class="cls-1" d="M20,0V1.93H16.89v.38H20V6.78H14.65v-2h3.09V4.36h-3.1V0Z"/><path class="cls-1" d="M13.58,0V2.23H10.5V4.44h3.07V6.68H8.26V0Z"/></g></g></svg>