<svg xmlns="http://www.w3.org/2000/svg" viewBox="0 0 47.45 46.27"><defs><style>.cls-1{fill:#fff;}</style></defs><g id="Calque_2" data-name="Calque 2"><g id="Calque_6" data-name="Calque 6"><path class="cls-1" d="M39.63,46.27H7.87l-.17,0L7,46.13A8.43,8.43,0,0,1,0,37.7V8.54A8.3,8.3,0,0,1,.18,6.75,8.28,8.28,0,0,1,5.41.55,8.16,8.16,0,0,1,8.5,0h31c.34,0,.69,0,1,.11a8.27,8.27,0,0,1,6.27,5,6.86,6.86,0,0,1,.61,2.53.47.47,0,0,0,0,.16V38.41a2.21,2.21,0,0,0-.05.25c0,.19,0,.38,0,.57a8.38,8.38,0,0,1-7.27,7A3.54,3.54,0,0,0,39.63,46.27Zm-35.09-24V32.39c0,.22.07.28.29.29.53,0,1,0,1.58,0h4.28a12.21,12.21,0,0,0,2-.17,10.65,10.65,0,0,0,3.51-1.19,9.8,9.8,0,0,0,4-4.15,10.84,10.84,0,0,0,1.13-4.35,13.33,13.33,0,0,0-.21-3.45,9.68,9.68,0,0,0-1.31-3.35A8.76,8.76,0,0,0,15,12.41a13.37,13.37,0,0,0-4.17-.61c-1.95,0-3.89,0-5.84.07-.53,0-.48.12-.48.51Zm28.23-.84h.06c0,.05,0,.11,0,.16.08.46.14.93.23,1.39.38,1.88.75,3.75,1.14,5.63.26,1.23.55,2.45.83,3.68.07.33.16.39.5.39h3.56a.3.3,0,0,0,.3-.21,1.06,1.06,0,0,0,.06-.19c.46-1.65.93-3.3,1.39-5q1.38-5,2.77-9.9a1.63,1.63,0,0,0,.07-.3c0-.16,0-.22-.19-.23H40.21c-.3,0-.34,0-.4.32-.25,1.08-.51,2.16-.74,3.25-.27,1.28-.52,2.56-.76,3.85-.17.9-.32,1.8-.49,2.7-.08.44-.16.89-.25,1.33a1.13,1.13,0,0,1-.08.19c0-.09-.05-.13-.06-.17l-.18-1.17c-.24-1.33-.44-2.67-.71-4-.41-2-.86-4-1.29-6-.07-.3-.07-.3-.38-.3H31.21c-.24,0-.26,0-.32.25a2.68,2.68,0,0,1-.07.27c-.24,1-.5,2-.71,2.94-.42,1.93-.82,3.86-1.22,5.8-.14.67-.25,1.35-.38,2,0,.06,0,.12-.05.2a.3.3,0,0,1-.11-.26c-.13-.72-.25-1.44-.37-2.16-.2-1.1-.38-2.21-.6-3.3-.28-1.42-.6-2.82-.9-4.23l-.3-1.31c0-.17-.09-.21-.27-.22h-3.8c-.15,0-.19.08-.17.22s0,.12,0,.17q1,4,2,8.06c.58,2.31,1.17,4.61,1.75,6.91.09.37.17.43.54.43h3.45c.31,0,.39-.06.46-.36.49-2,1-3.95,1.46-5.94.36-1.52.67-3.05,1-4.58Z"/><path class="cls-1" d="M8.69,15.69c.11,0,.2,0,.29,0,.65,0,1.29-.06,1.93,0a7.44,7.44,0,0,1,3.05.66,5.17,5.17,0,0,1,2.84,3.44,8.89,8.89,0,0,1,.27,2.95,8.17,8.17,0,0,1-.46,2.3,5.59,5.59,0,0,1-4.27,3.79,7.64,7.64,0,0,1-1.78.19L8.8,28.88l-.11,0c0-.1,0-.21,0-.32,0-2.14,0-4.29,0-6.43V16C8.68,15.92,8.68,15.81,8.69,15.69Z"/></g></g></svg>